<?xml version="1.0" standalone="no"?>
<!DOCTYPE svg PUBLIC "-//W3C//DTD SVG 20010904//EN"
 "http://www.w3.org/TR/2001/REC-SVG-20010904/DTD/svg10.dtd">
<svg version="1.0" xmlns="http://www.w3.org/2000/svg"
 width="512.000000pt" height="512.000000pt" viewBox="0 0 512.000000 512.000000"
 preserveAspectRatio="xMidYMid meet">
<metadata>
Created by potrace 1.11, written by Peter Selinger 2001-2013
</metadata>
<g transform="translate(0.000000,512.000000) scale(0.100000,-0.100000)"
fill="#000000" stroke="none">
<path d="M2369 5045 c-2 -2 -34 -6 -70 -9 -36 -4 -79 -9 -95 -12 -16 -2 -56
-9 -89 -15 -199 -34 -432 -112 -640 -215 -131 -64 -264 -140 -302 -174 -7 -5
-15 -10 -18 -10 -3 0 -35 -22 -70 -50 -35 -27 -66 -50 -69 -50 -15 0 -298
-276 -353 -345 -100 -126 -124 -158 -175 -236 -212 -325 -341 -673 -392 -1064
-19 -140 -24 -379 -12 -505 13 -130 17 -165 21 -180 2 -8 7 -33 10 -55 7 -50
13 -81 19 -103 3 -9 8 -30 10 -47 5 -25 30 -114 66 -225 71 -225 243 -539 404
-740 165 -204 266 -300 526 -498 92 -70 367 -220 480 -263 145 -54 192 -70
274 -94 48 -14 98 -27 110 -29 90 -19 190 -36 236 -42 30 -4 66 -8 80 -11 51
-8 398 -10 473 -2 141 14 314 44 412 71 22 6 45 12 50 14 19 4 170 55 190 64
11 5 31 12 45 16 49 13 307 145 408 209 721 453 1166 1252 1166 2095 0 121
-12 338 -18 349 -2 3 -7 28 -11 56 -15 119 -79 363 -122 475 -4 8 -7 17 -8 20
-1 3 -7 19 -14 35 -6 17 -17 44 -23 60 -29 74 -145 289 -205 380 -109 164
-190 263 -333 405 -299 300 -616 490 -1044 627 -44 14 -91 27 -105 29 -14 3
-34 7 -43 10 -24 7 -59 15 -88 19 -14 2 -52 8 -85 14 -33 5 -78 13 -100 16
-42 7 -490 16 -496 10z"/>
</g>
</svg>
